<?xml version="1.0" encoding="UTF-8"?>
<svg version="1.1" xmlns="http://www.w3.org/2000/svg" width="267" height="258">
<path d="M0 0 C0.82785507 -0.00335861 1.65571014 -0.00671722 2.50865173 -0.01017761 C5.25618984 -0.01970599 8.00366708 -0.02163199 10.7512207 -0.02270508 C12.65973435 -0.02591749 14.56824774 -0.02928155 16.47676086 -0.03279114 C20.48418752 -0.03878792 24.49159261 -0.04063059 28.49902344 -0.04003906 C33.62580093 -0.03993767 38.75243921 -0.05356384 43.87918377 -0.07081127 C47.8246575 -0.08195211 51.77009786 -0.08395759 55.71558571 -0.08342934 C57.6049529 -0.08460731 59.49432102 -0.08901883 61.38367271 -0.0967617 C64.03322324 -0.10659902 66.68247555 -0.10366829 69.33203125 -0.09765625 C70.10788574 -0.10327576 70.88374023 -0.10889526 71.68310547 -0.11468506 C76.49458193 -0.08705215 80.41406096 0.64874919 84.98950195 2.14526367 C86.38242673 2.43067908 87.77802665 2.70365838 89.17700195 2.95776367 C97.21471746 4.70569153 105.5447054 7.953622 111.98950195 13.14526367 C111.98950195 13.80526367 111.98950195 14.46526367 111.98950195 15.14526367 C112.93825195 15.22776367 113.88700195 15.31026367 114.86450195 15.39526367 C123.82168711 16.74423734 130.63973975 21.00247699 137.73950195 26.43823242 C139.86538658 28.16000844 139.86538658 28.16000844 141.98950195 29.14526367 C141.98950195 29.80526367 141.98950195 30.46526367 141.98950195 31.14526367 C142.56958008 31.39405273 143.1496582 31.6428418 143.74731445 31.89916992 C154.371656 37.80363848 159.69352691 51.39020162 163.2277832 62.32104492 C165.0308853 69.00639269 165.13775531 75.39280786 165.13476562 82.27197266 C165.13812424 83.38326538 165.14148285 84.49455811 165.14494324 85.63952637 C165.15442895 89.30681481 165.15639504 92.97405748 165.1574707 96.64135742 C165.16068451 99.19434121 165.16404868 101.74732482 165.16755676 104.30030823 C165.17354177 109.64910381 165.17544015 114.99788239 165.17480469 120.34667969 C165.17420384 126.51785859 165.18476081 132.6889501 165.20054835 138.86010689 C165.21522739 144.81134814 165.21879203 150.76256282 165.21819496 156.71382332 C165.21937445 159.23955709 165.22379449 161.76529151 165.23152733 164.29101372 C165.24133225 167.82380292 165.2384472 171.35636728 165.23242188 174.88916016 C165.23804138 175.92990189 165.24366089 176.97064362 165.24945068 178.04292297 C165.22592387 183.47566884 164.79783617 188.01030727 162.98950195 193.14526367 C162.32950195 193.14526367 161.66950195 193.14526367 160.98950195 193.14526367 C161.31950195 194.13526367 161.64950195 195.12526367 161.98950195 196.14526367 C160.85193757 198.86718774 159.65820157 201.41128346 158.30200195 204.02026367 C157.94944336 204.72795898 157.59688477 205.4356543 157.23364258 206.16479492 C155.18879367 210.17972679 153.08498747 213.82168975 149.98950195 217.14526367 C149.32950195 217.14526367 148.66950195 217.14526367 147.98950195 217.14526367 C147.6337207 217.99797852 147.6337207 217.99797852 147.27075195 218.86791992 C142.76994033 226.86783814 134.10315636 231.56736746 125.98950195 235.14526367 C124.91700195 235.72276367 123.84450195 236.30026367 122.73950195 236.89526367 C119.77367183 238.24336827 117.22865901 238.85079485 113.98950195 239.14526367 C113.32950195 238.81526367 112.66950195 238.48526367 111.98950195 238.14526367 C111.98950195 238.80526367 111.98950195 239.46526367 111.98950195 240.14526367 C105.29502946 241.00851893 98.77099589 241.28858317 92.02539062 241.2746582 C90.43834824 241.27728668 90.43834824 241.27728668 88.81924438 241.27996826 C85.34863611 241.28434257 81.87807943 241.28146548 78.4074707 241.27807617 C75.98610932 241.27875023 73.564748 241.27972111 71.14338684 241.28097534 C66.08240104 241.28244611 61.02143295 241.28031679 55.96044922 241.27563477 C49.46935979 241.26992257 42.97831157 241.27322983 36.48722363 241.27920723 C31.49361357 241.2828166 26.50001332 241.28167278 21.50640297 241.27907944 C19.1121654 241.278412 16.71792694 241.2792322 14.32369041 241.28155899 C10.98464968 241.28409329 7.64567633 241.28023453 4.30664062 241.2746582 C3.31593063 241.27668243 2.32522064 241.27870667 1.30448914 241.28079224 C0.39485413 241.27797241 -0.51478088 241.27515259 -1.45198059 241.27224731 C-2.24040753 241.27187029 -3.02883448 241.27149326 -3.84115314 241.27110481 C-6.01506837 241.14499855 -7.92163131 240.74456373 -10.01049805 240.14526367 C-10.01049805 239.48526367 -10.01049805 238.82526367 -10.01049805 238.14526367 C-10.59057617 238.33604492 -11.1706543 238.52682617 -11.76831055 238.72338867 C-19.60429914 240.19775586 -29.99611077 232.17348651 -36.2019043 228.15698242 C-45.24573557 221.67913388 -53.10403018 212.6374141 -57.01049805 202.14526367 C-57.40237305 201.25838867 -57.79424805 200.37151367 -58.19799805 199.45776367 C-58.46612305 198.69463867 -58.73424805 197.93151367 -59.01049805 197.14526367 C-58.68049805 196.48526367 -58.35049805 195.82526367 -58.01049805 195.14526367 C-58.67049805 195.14526367 -59.33049805 195.14526367 -60.01049805 195.14526367 C-66.92146722 185.73635383 -72.16777605 174.43434671 -75.01049805 163.14526367 C-75.17936523 162.53682617 -75.34823242 161.92838867 -75.5222168 161.30151367 C-76.83459771 155.50603957 -77.15939573 149.77929399 -77.15576172 143.85839844 C-77.15912033 143.06068024 -77.16247894 142.26296204 -77.16593933 141.44107056 C-77.17538244 138.82292086 -77.17738892 136.20483555 -77.1784668 133.58666992 C-77.1816834 131.75495885 -77.18504778 129.92324802 -77.18855286 128.09153748 C-77.19452709 124.25942387 -77.19639445 120.42733277 -77.19580078 116.59521484 C-77.19569912 111.69848286 -77.20936296 106.80189575 -77.22657299 101.9051981 C-77.23771991 98.12439823 -77.23971918 94.34363314 -77.23919106 90.56281853 C-77.24036666 88.75801023 -77.24476476 86.9532009 -77.25252342 85.14840889 C-77.2623802 82.61934516 -77.25942325 80.09059276 -77.25341797 77.56152344 C-77.25903748 76.82517166 -77.26465698 76.08881989 -77.27044678 75.33015442 C-77.24028749 70.30235141 -76.37612865 65.98749244 -75.01049805 61.14526367 C-74.69725586 59.89229492 -74.69725586 59.89229492 -74.37768555 58.61401367 C-73.6940918 55.87963867 -73.6940918 55.87963867 -73.01049805 53.14526367 C-72.35049805 53.14526367 -71.69049805 53.14526367 -71.01049805 53.14526367 C-71.50549805 51.66026367 -71.50549805 51.66026367 -72.01049805 50.14526367 C-70.88549805 47.52026367 -70.88549805 47.52026367 -69.01049805 44.14526367 C-68.48069336 43.11852539 -68.48069336 43.11852539 -67.94018555 42.07104492 C-63.83812098 34.28798865 -59.06875299 27.48664579 -52.01049805 22.14526367 C-51.42526367 21.37053711 -50.8400293 20.59581055 -50.23706055 19.79760742 C-47.76770041 16.85603631 -45.28454423 15.05154599 -42.07299805 12.95776367 C-41.05334961 12.28358398 -40.03370117 11.6094043 -38.9831543 10.91479492 C-36.34257094 9.3429365 -33.88376233 8.20236415 -31.01049805 7.14526367 C-30.25510742 6.81526367 -29.4997168 6.48526367 -28.72143555 6.14526367 C-23.27996418 3.81580436 -18.1123586 2.42921123 -12.26049805 1.53979492 C-3.46769061 -0.00199944 -3.46769061 -0.00199944 0 0 Z " fill="#049945" transform="translate(89.010498046875,9.854736328125)"/>
<path d="M0 0 C1.04035904 -0.00671722 2.08071808 -0.01343445 3.15260315 -0.02035522 C6.57037214 -0.03925315 9.98794382 -0.04325562 13.40576172 -0.04541016 C15.80077187 -0.05184492 18.19578125 -0.05857377 20.59078979 -0.06558228 C25.60562968 -0.0775354 30.62040079 -0.08126523 35.63525391 -0.08007812 C42.02678074 -0.07987532 48.41786104 -0.10714728 54.8092823 -0.14162254 C59.75617453 -0.16398327 64.70296097 -0.16791282 69.64989853 -0.16685867 C72.00435801 -0.16920199 74.35882097 -0.17795301 76.71323013 -0.19352341 C98.62351895 -0.32483253 116.1836844 1.95572529 132.54638672 17.57177734 C137.36252577 22.48678142 137.36252577 22.48678142 139.21044922 25.29052734 C139.11598706 28.68486769 137.5345951 30.32511248 135.14794922 32.60302734 C134.50986328 33.21404297 133.87177734 33.82505859 133.21435547 34.45458984 C130.70424754 36.75429886 128.14775431 38.99309369 125.56982422 41.21630859 C122.61180565 43.81681829 119.72352297 46.48783753 116.83544922 49.16552734 C112.17118625 53.48817667 107.47350637 57.76869492 102.73779297 62.01318359 C99.87962622 64.58862597 97.04343776 67.18748334 94.21044922 69.79052734 C86.64292255 76.73911253 79.04775506 83.645855 71.21044922 90.29052734 C67.3538576 88.84430549 63.73281928 87.07735237 60.07763672 85.19287109 C53.53008414 82.02867727 45.26308575 82.15711603 38.34716797 84.09130859 C31.18654994 87.33196154 25.35733497 92.62087013 22.05029297 99.81396484 C19.19055386 108.45968774 19.61957682 115.92251219 23.21044922 124.29052734 C24.10763672 125.68271484 24.10763672 125.68271484 25.02294922 127.10302734 C25.41482422 127.82490234 25.80669922 128.54677734 26.21044922 129.29052734 C24.91525051 133.32389781 21.78996044 135.75945634 18.71044922 138.47802734 C17.90414062 139.203125 17.90414062 139.203125 17.08154297 139.94287109 C15.46247035 141.39735713 13.83677994 142.84416776 12.21044922 144.29052734 C10.54303357 145.78969473 8.87630883 147.2896311 7.21044922 148.79052734 C6.40607422 149.51240234 5.60169922 150.23427734 4.77294922 150.97802734 C1.90444513 153.56667738 -0.94431729 156.1763788 -3.78955078 158.79052734 C-8.24019925 162.87970182 -12.72033161 166.93421818 -17.21923828 170.97021484 C-20.13383485 173.60132482 -23.02497028 176.25702284 -25.91455078 178.91552734 C-29.97982852 182.65509073 -34.08393288 186.34200895 -38.26611328 189.95068359 C-39.48127914 191.01940638 -40.64526138 192.14623795 -41.78955078 193.29052734 C-42.77955078 193.29052734 -43.76955078 193.29052734 -44.78955078 193.29052734 C-56.17382307 181.26668919 -61.10416856 166.49364828 -61.06420898 150.16796875 C-61.06931992 149.08070999 -61.07443085 147.99345123 -61.07969666 146.87324524 C-61.09354241 143.2961367 -61.0926396 139.71922192 -61.09033203 136.14208984 C-61.09422174 133.64399138 -61.09855697 131.14589358 -61.10331726 128.64779663 C-61.11076872 123.41768243 -61.11049596 118.18763575 -61.10522461 112.95751953 C-61.09985555 107.59969883 -61.10689289 102.24206719 -61.12573242 96.88427734 C-61.14824541 90.39759746 -61.15597716 83.91107515 -61.15205956 77.42435837 C-61.15257138 74.95971503 -61.15778299 72.49506784 -61.16787148 70.0304451 C-61.18027179 66.57740762 -61.17342215 63.12490457 -61.16186523 59.671875 C-61.16950897 58.66376266 -61.17715271 57.65565033 -61.18502808 56.61698914 C-61.07132696 41.169228 -54.37709083 27.84576062 -43.64892578 16.98583984 C-31.11494319 5.17102019 -17.01675137 -0.01601099 0 0 Z " fill="#08663A" transform="translate(95.78955078125,31.70947265625)"/>
<path d="M0 0 C0.82785507 -0.00335861 1.65571014 -0.00671722 2.50865173 -0.01017761 C5.25618984 -0.01970599 8.00366708 -0.02163199 10.7512207 -0.02270508 C12.65973435 -0.02591749 14.56824774 -0.02928155 16.47676086 -0.03279114 C20.48418752 -0.03878792 24.49159261 -0.04063059 28.49902344 -0.04003906 C33.62580093 -0.03993767 38.75243921 -0.05356384 43.87918377 -0.07081127 C47.8246575 -0.08195211 51.77009786 -0.08395759 55.71558571 -0.08342934 C57.6049529 -0.08460731 59.49432102 -0.08901883 61.38367271 -0.0967617 C64.03322324 -0.10659902 66.68247555 -0.10366829 69.33203125 -0.09765625 C70.10788574 -0.10327576 70.88374023 -0.10889526 71.68310547 -0.11468506 C76.49458193 -0.08705215 80.41406096 0.64874919 84.98950195 2.14526367 C86.38242673 2.43067908 87.77802665 2.70365838 89.17700195 2.95776367 C97.21471746 4.70569153 105.5447054 7.953622 111.98950195 13.14526367 C111.98950195 13.80526367 111.98950195 14.46526367 111.98950195 15.14526367 C112.93825195 15.22776367 113.88700195 15.31026367 114.86450195 15.39526367 C123.82168711 16.74423734 130.63973975 21.00247699 137.73950195 26.43823242 C139.86538658 28.16000844 139.86538658 28.16000844 141.98950195 29.14526367 C141.98950195 29.80526367 141.98950195 30.46526367 141.98950195 31.14526367 C142.56958008 31.39405273 143.1496582 31.6428418 143.74731445 31.89916992 C154.371656 37.80363848 159.69352691 51.39020162 163.2277832 62.32104492 C165.0308853 69.00639269 165.13775531 75.39280786 165.13476562 82.27197266 C165.13812424 83.38326538 165.14148285 84.49455811 165.14494324 85.63952637 C165.15442895 89.30681481 165.15639504 92.97405748 165.1574707 96.64135742 C165.16068451 99.19434121 165.16404868 101.74732482 165.16755676 104.30030823 C165.17354177 109.64910381 165.17544015 114.99788239 165.17480469 120.34667969 C165.17420384 126.51785859 165.18476081 132.6889501 165.20054835 138.86010689 C165.21522739 144.81134814 165.21879203 150.76256282 165.21819496 156.71382332 C165.21937445 159.23955709 165.22379449 161.76529151 165.23152733 164.29101372 C165.24133225 167.82380292 165.2384472 171.35636728 165.23242188 174.88916016 C165.23804138 175.92990189 165.24366089 176.97064362 165.24945068 178.04292297 C165.22592387 183.47566884 164.79783617 188.01030727 162.98950195 193.14526367 C162.32950195 193.14526367 161.66950195 193.14526367 160.98950195 193.14526367 C161.31950195 194.13526367 161.64950195 195.12526367 161.98950195 196.14526367 C160.85193757 198.86718774 159.65820157 201.41128346 158.30200195 204.02026367 C157.94944336 204.72795898 157.59688477 205.4356543 157.23364258 206.16479492 C155.18879367 210.17972679 153.08498747 213.82168975 149.98950195 217.14526367 C149.32950195 217.14526367 148.66950195 217.14526367 147.98950195 217.14526367 C147.6337207 217.99797852 147.6337207 217.99797852 147.27075195 218.86791992 C142.76994033 226.86783814 134.10315636 231.56736746 125.98950195 235.14526367 C124.91700195 235.72276367 123.84450195 236.30026367 122.73950195 236.89526367 C119.77367183 238.24336827 117.22865901 238.85079485 113.98950195 239.14526367 C113.32950195 238.81526367 112.66950195 238.48526367 111.98950195 238.14526367 C111.98950195 238.80526367 111.98950195 239.46526367 111.98950195 240.14526367 C105.29502946 241.00851893 98.77099589 241.28858317 92.02539062 241.2746582 C90.43834824 241.27728668 90.43834824 241.27728668 88.81924438 241.27996826 C85.34863611 241.28434257 81.87807943 241.28146548 78.4074707 241.27807617 C75.98610932 241.27875023 73.564748 241.27972111 71.14338684 241.28097534 C66.08240104 241.28244611 61.02143295 241.28031679 55.96044922 241.27563477 C49.46935979 241.26992257 42.97831157 241.27322983 36.48722363 241.27920723 C31.49361357 241.2828166 26.50001332 241.28167278 21.50640297 241.27907944 C19.1121654 241.278412 16.71792694 241.2792322 14.32369041 241.28155899 C10.98464968 241.28409329 7.64567633 241.28023453 4.30664062 241.2746582 C3.31593063 241.27668243 2.32522064 241.27870667 1.30448914 241.28079224 C0.39485413 241.27797241 -0.51478088 241.27515259 -1.45198059 241.27224731 C-2.24040753 241.27187029 -3.02883448 241.27149326 -3.84115314 241.27110481 C-6.01506837 241.14499855 -7.92163131 240.74456373 -10.01049805 240.14526367 C-10.01049805 239.48526367 -10.01049805 238.82526367 -10.01049805 238.14526367 C-10.59057617 238.33604492 -11.1706543 238.52682617 -11.76831055 238.72338867 C-19.60429914 240.19775586 -29.99611077 232.17348651 -36.2019043 228.15698242 C-45.24573557 221.67913388 -53.10403018 212.6374141 -57.01049805 202.14526367 C-57.40237305 201.25838867 -57.79424805 200.37151367 -58.19799805 199.45776367 C-58.46612305 198.69463867 -58.73424805 197.93151367 -59.01049805 197.14526367 C-58.68049805 196.48526367 -58.35049805 195.82526367 -58.01049805 195.14526367 C-58.67049805 195.14526367 -59.33049805 195.14526367 -60.01049805 195.14526367 C-66.92146722 185.73635383 -72.16777605 174.43434671 -75.01049805 163.14526367 C-75.17936523 162.53682617 -75.34823242 161.92838867 -75.5222168 161.30151367 C-76.83459771 155.50603957 -77.15939573 149.77929399 -77.15576172 143.85839844 C-77.15912033 143.06068024 -77.16247894 142.26296204 -77.16593933 141.44107056 C-77.17538244 138.82292086 -77.17738892 136.20483555 -77.1784668 133.58666992 C-77.1816834 131.75495885 -77.18504778 129.92324802 -77.18855286 128.09153748 C-77.19452709 124.25942387 -77.19639445 120.42733277 -77.19580078 116.59521484 C-77.19569912 111.69848286 -77.20936296 106.80189575 -77.22657299 101.9051981 C-77.23771991 98.12439823 -77.23971918 94.34363314 -77.23919106 90.56281853 C-77.24036666 88.75801023 -77.24476476 86.9532009 -77.25252342 85.14840889 C-77.2623802 82.61934516 -77.25942325 80.09059276 -77.25341797 77.56152344 C-77.25903748 76.82517166 -77.26465698 76.08881989 -77.27044678 75.33015442 C-77.24028749 70.30235141 -76.37612865 65.98749244 -75.01049805 61.14526367 C-74.69725586 59.89229492 -74.69725586 59.89229492 -74.37768555 58.61401367 C-73.6940918 55.87963867 -73.6940918 55.87963867 -73.01049805 53.14526367 C-72.35049805 53.14526367 -71.69049805 53.14526367 -71.01049805 53.14526367 C-71.50549805 51.66026367 -71.50549805 51.66026367 -72.01049805 50.14526367 C-70.88549805 47.52026367 -70.88549805 47.52026367 -69.01049805 44.14526367 C-68.48069336 43.11852539 -68.48069336 43.11852539 -67.94018555 42.07104492 C-63.83812098 34.28798865 -59.06875299 27.48664579 -52.01049805 22.14526367 C-51.42526367 21.37053711 -50.8400293 20.59581055 -50.23706055 19.79760742 C-47.76770041 16.85603631 -45.28454423 15.05154599 -42.07299805 12.95776367 C-41.05334961 12.28358398 -40.03370117 11.6094043 -38.9831543 10.91479492 C-36.34257094 9.3429365 -33.88376233 8.20236415 -31.01049805 7.14526367 C-30.25510742 6.81526367 -29.4997168 6.48526367 -28.72143555 6.14526367 C-23.27996418 3.81580436 -18.1123586 2.42921123 -12.26049805 1.53979492 C-3.46769061 -0.00199944 -3.46769061 -0.00199944 0 0 Z M-38.01049805 32.14526367 C-38.8303418 32.76530273 -39.65018555 33.3853418 -40.49487305 34.02416992 C-50.98828496 42.87187593 -57.59566973 56.81048083 -60.01049805 70.14526367 C-60.29306957 73.79200606 -60.30436157 77.42435324 -60.30102539 81.08081055 C-60.30774261 82.14867798 -60.31445984 83.21654541 -60.32138062 84.31677246 C-60.34031124 87.83256747 -60.34428298 91.34817091 -60.34643555 94.86401367 C-60.3528691 97.32531816 -60.35959787 99.78662189 -60.36660767 102.2479248 C-60.37856973 107.40577972 -60.38228981 112.56356774 -60.38110352 117.72143555 C-60.3809009 124.29336935 -60.40814873 130.86486793 -60.44264793 137.43669891 C-60.46501926 142.52260257 -60.46893785 147.6084034 -60.46788406 152.6943512 C-60.47022673 155.11496982 -60.47897393 157.53559185 -60.4945488 159.9561615 C-60.63583024 184.19095347 -57.47321774 202.80856417 -40.21362305 221.04370117 C-22.96601626 237.33310758 -3.11613788 238.7576765 19.3996582 238.64135742 C21.8595738 238.64151269 24.31948964 238.64300633 26.77940369 238.64576721 C31.91408209 238.64714548 37.04847922 238.63468797 42.18310547 238.61181641 C48.73494896 238.58341908 55.28632632 238.58618119 61.83820438 238.59890652 C66.9111269 238.60589066 71.98394337 238.59804344 77.05685234 238.58564949 C79.47155792 238.58116263 81.88627499 238.58077375 84.30098152 238.58471489 C107.9180118 238.60522545 126.27054167 235.72595442 144.25512695 219.04370117 C148.97720503 214.24131564 152.33860885 209.17277327 155.36450195 203.20776367 C155.68620361 202.57620361 156.00790527 201.94464355 156.33935547 201.29394531 C160.8093027 191.97239795 162.43912622 182.82496954 162.39355469 172.54614258 C162.40041794 171.44375748 162.40728119 170.34137238 162.41435242 169.20558167 C162.43251817 165.59419542 162.42879719 161.9832479 162.4230957 158.37182617 C162.42766254 155.84036113 162.43296961 153.30889733 162.4389801 150.7774353 C162.44789131 145.48364631 162.44574786 140.19001435 162.43554688 134.89624023 C162.42407593 128.80958401 162.43813721 122.72336897 162.46494335 116.63677084 C162.48991755 110.74156309 162.4922535 104.84652475 162.48582649 98.95127487 C162.48567393 96.46119834 162.49166372 93.97111305 162.50411797 91.48106766 C162.5993238 69.32664555 159.71068105 51.98354561 143.98950195 35.14526367 C125.38349329 17.42798577 104.54224053 15.51562407 80.1105957 15.61401367 C77.72558942 15.61131216 75.34058422 15.60742428 72.95558167 15.60241699 C67.98248704 15.59655416 63.0096818 15.60498148 58.03662109 15.6237793 C51.70017453 15.64657886 45.36440552 15.63341806 39.02798367 15.60948944 C34.11109926 15.59495491 29.19437244 15.59967223 24.27748299 15.61000061 C21.94257588 15.61264613 19.60765391 15.60947586 17.27276421 15.6000824 C-4.18746909 15.53265928 -21.03276986 18.06540374 -38.01049805 32.14526367 Z " fill="#09673B" transform="translate(89.010498046875,9.854736328125)"/>
<path d="M0 0 C2.38689827 -0.00457004 4.77379522 -0.00987804 7.16069031 -0.0158844 C12.14746467 -0.02478407 17.13407862 -0.02242878 22.12084961 -0.01245117 C28.47183286 -0.00097447 34.82225899 -0.02117001 41.17316914 -0.05036831 C46.09866277 -0.06882652 51.02402532 -0.06841859 55.94954491 -0.06273079 C58.28921476 -0.0625787 60.62889415 -0.0685284 62.96853065 -0.08102226 C86.23519518 -0.18777409 105.83901973 2.74881477 123.44921875 19.43359375 C128.73359299 24.85031368 132.41641701 30.85852212 135.82421875 37.55859375 C136.15832764 38.21545166 136.49243652 38.87230957 136.83666992 39.54907227 C140.87904108 47.88041483 141.74785009 55.51538073 141.73974609 64.67626953 C141.74646332 65.77661026 141.75318054 66.87695099 141.76010132 68.01063538 C141.77903377 71.63343883 141.78300349 75.25605646 141.78515625 78.87890625 C141.79158866 81.41226272 141.79831735 83.94561845 141.80532837 86.47897339 C141.81729015 91.78645853 141.82109644 97.09387518 141.81982422 102.40136719 C141.81862568 108.50212381 141.83967933 114.60252503 141.87131155 120.70319188 C141.90081483 126.60744855 141.90779484 132.51156689 141.90660477 138.41588974 C141.90895157 140.9107292 141.91772261 143.4055718 141.9332695 145.90036392 C142.07458379 170.92444123 142.07458379 170.92444123 137.44921875 182.43359375 C137.1847847 183.11572937 136.92035065 183.79786499 136.64790344 184.50067139 C129.4980579 201.2780479 115.45408058 212.14848223 99.13671875 219.171875 C90.90210435 221.98943904 82.9473267 222.73415311 74.28662109 222.73999023 C73.21846161 222.74831375 72.15030212 222.75663727 71.04977417 222.76521301 C67.5448636 222.78915847 64.04013976 222.79806695 60.53515625 222.8046875 C58.0767105 222.81366665 55.61826527 222.82278871 53.15982056 222.83204651 C48.01392291 222.84849793 42.86809002 222.85622942 37.72216797 222.85913086 C31.16590072 222.86450568 24.61025215 222.90216646 18.05415916 222.94787502 C12.97683555 222.97779024 7.89965822 222.98485759 2.82225418 222.98585701 C0.40720415 222.99003179 -2.00784744 223.0023541 -4.4228096 223.02337456 C-27.32055024 223.20680107 -45.69585644 219.69900636 -62.94140625 203.30078125 C-70.22772055 195.29456165 -75.7193696 185.92302033 -78.55078125 175.43359375 C-78.71608149 174.82263729 -78.88138172 174.21168083 -79.05169106 173.58221054 C-80.57215409 167.45017261 -80.8470496 161.63614112 -80.84130859 155.33691406 C-80.84802582 154.26408173 -80.85474304 153.19124939 -80.86166382 152.08590698 C-80.88056461 148.56112964 -80.88456408 145.03654353 -80.88671875 141.51171875 C-80.8931523 139.04465661 -80.89988107 136.57759523 -80.90689087 134.11053467 C-80.91884396 128.94606763 -80.92257373 123.78166739 -80.92138672 118.6171875 C-80.92118368 112.02593103 -80.94847987 105.43510643 -80.98293114 98.84395218 C-81.00525742 93.74959375 -81.00922249 88.6553383 -81.00816727 83.56093597 C-81.01051482 81.13225568 -81.01929019 78.70357219 -81.034832 76.27494049 C-81.17597922 51.94033753 -81.17597922 51.94033753 -76.55078125 41.43359375 C-75.86790543 39.8456601 -75.86790543 39.8456601 -75.17123413 38.22564697 C-67.72123305 21.61033155 -54.19250241 10.3171607 -37.55078125 3.43359375 C-25.44002623 -0.79065725 -12.64372602 -0.02128792 0 0 Z M-61.51171875 27.5859375 C-70.93455214 38.96328874 -74.85441705 50.94513458 -74.84130859 65.49267578 C-74.84802582 66.57350937 -74.85474304 67.65434296 -74.86166382 68.76792908 C-74.88059312 72.32580216 -74.88456584 75.883486 -74.88671875 79.44140625 C-74.89315141 81.92992224 -74.89988012 84.41843748 -74.90689087 86.9069519 C-74.91885188 92.12027742 -74.92257302 97.33353674 -74.92138672 102.546875 C-74.92005646 109.19744974 -74.94845519 115.84764641 -74.98293114 122.49814034 C-75.00527185 127.63886427 -75.00922202 132.77948626 -75.00816727 137.92025375 C-75.01051361 140.37043609 -75.01928205 142.82062165 -75.034832 145.27075577 C-75.14998209 165.29279248 -73.73614817 183.19530104 -59.3828125 198.72265625 C-49.12041942 208.30672484 -36.18392909 216.48881077 -21.7225647 216.5874939 C-20.77815521 216.59609436 -19.83374573 216.60469482 -18.86071777 216.61355591 C-17.83627563 216.61781586 -16.8118335 216.62207581 -15.75634766 216.62646484 C-14.12353348 216.63873108 -14.12353348 216.63873108 -12.45773315 216.65124512 C-8.85594218 216.67604944 -5.25419064 216.69260699 -1.65234375 216.70703125 C-0.41793926 216.71235493 0.81646523 216.7176786 2.08827591 216.7231636 C7.95463799 216.74712785 13.820984 216.76636663 19.68738115 216.77918565 C25.75384149 216.79270986 31.81993087 216.81892553 37.88623047 216.86572266 C44.41487639 216.91525742 50.94317815 216.93983866 57.47200394 216.94691849 C59.94929385 216.95359792 62.42657709 216.96873262 64.903759 216.9928093 C86.51463774 217.19078713 103.04362405 214.51534628 119.60546875 199.37890625 C123.06066974 195.73337639 125.79454236 191.68379175 128.44921875 187.43359375 C128.83980469 186.83289063 129.23039063 186.2321875 129.6328125 185.61328125 C137.65667205 171.6886067 137.03432442 154.43213428 136.9453125 138.953125 C136.94546792 136.72409518 136.94696407 134.4950651 136.94972229 132.26603699 C136.95109704 127.62425599 136.93870117 122.98278745 136.91577148 118.34106445 C136.88734013 112.42724109 136.89015046 106.51393377 136.9028616 100.60007191 C136.90985402 96.007499 136.90198976 91.41504294 136.88960457 86.82248497 C136.88512817 84.64305763 136.88471942 82.46361758 136.88866997 80.28418922 C136.90901912 59.19448679 135.15920619 40.54333588 119.69921875 24.61328125 C118.58546875 23.53433594 118.58546875 23.53433594 117.44921875 22.43359375 C116.78921875 21.77617188 116.12921875 21.11875 115.44921875 20.44140625 C99.85931391 5.7944392 79.63955883 5.83067677 59.5625 5.9375 C57.16887874 5.9373447 54.77525724 5.93585052 52.38163757 5.93309021 C47.38997136 5.93171311 42.39859489 5.94415139 37.40698242 5.96704102 C31.0355467 5.99546946 24.6645899 5.9926662 18.29311848 5.9799509 C13.35920681 5.97297054 8.4254043 5.98080918 3.49150658 5.99320793 C1.14296068 5.99769624 -1.20559703 5.99808238 -3.55414391 5.99414253 C-27.20041595 5.97303004 -44.7808759 9.22200442 -61.51171875 27.5859375 Z " fill="#F3F8F6" transform="translate(109.55078125,25.56640625)"/>
<path d="M0 0 C6.08633284 3.77540735 9.40804642 9.51286359 12.3125 15.875 C14.03474813 23.70340059 13.54914478 31.74446984 10 39 C4.53904598 46.70305303 -1.0859427 51.02864757 -10 54 C-19.02267513 54.82130983 -26.58040458 54.55505238 -34 49 C-41.37095575 42.14564115 -45.56488939 35.41788147 -46.25 25.3125 C-46.02576018 16.11866741 -42.93100349 9.764469 -36.5078125 3.20703125 C-25.96787064 -6.06877428 -12.22516408 -6.89219047 0 0 Z " fill="#F4F9F7" transform="translate(161,118)"/>
<path d="M0 0 C0.82785507 -0.00335861 1.65571014 -0.00671722 2.50865173 -0.01017761 C5.25618984 -0.01970599 8.00366708 -0.02163199 10.7512207 -0.02270508 C12.65973435 -0.02591749 14.56824774 -0.02928155 16.47676086 -0.03279114 C20.48418752 -0.03878792 24.49159261 -0.04063059 28.49902344 -0.04003906 C33.62580093 -0.03993767 38.75243921 -0.05356384 43.87918377 -0.07081127 C47.8246575 -0.08195211 51.77009786 -0.08395759 55.71558571 -0.08342934 C57.6049529 -0.08460731 59.49432102 -0.08901883 61.38367271 -0.0967617 C64.03322324 -0.10659902 66.68247555 -0.10366829 69.33203125 -0.09765625 C70.10788574 -0.10327576 70.88374023 -0.10889526 71.68310547 -0.11468506 C76.49458193 -0.08705215 80.41406096 0.64874919 84.98950195 2.14526367 C86.38242673 2.43067908 87.77802665 2.70365838 89.17700195 2.95776367 C97.21471746 4.70569153 105.5447054 7.953622 111.98950195 13.14526367 C111.98950195 13.80526367 111.98950195 14.46526367 111.98950195 15.14526367 C112.93825195 15.22776367 113.88700195 15.31026367 114.86450195 15.39526367 C123.82168711 16.74423734 130.63973975 21.00247699 137.73950195 26.43823242 C139.86538658 28.16000844 139.86538658 28.16000844 141.98950195 29.14526367 C141.98950195 29.80526367 141.98950195 30.46526367 141.98950195 31.14526367 C142.56958008 31.39405273 143.1496582 31.6428418 143.74731445 31.89916992 C154.371656 37.80363848 159.69352691 51.39020162 163.2277832 62.32104492 C165.0308853 69.00639269 165.13775531 75.39280786 165.13476562 82.27197266 C165.13812424 83.38326538 165.14148285 84.49455811 165.14494324 85.63952637 C165.15442895 89.30681481 165.15639504 92.97405748 165.1574707 96.64135742 C165.16068451 99.19434121 165.16404868 101.74732482 165.16755676 104.30030823 C165.17354177 109.64910381 165.17544015 114.99788239 165.17480469 120.34667969 C165.17420384 126.51785859 165.18476081 132.6889501 165.20054835 138.86010689 C165.21522739 144.81134814 165.21879203 150.76256282 165.21819496 156.71382332 C165.21937445 159.23955709 165.22379449 161.76529151 165.23152733 164.29101372 C165.24133225 167.82380292 165.2384472 171.35636728 165.23242188 174.88916016 C165.23804138 175.92990189 165.24366089 176.97064362 165.24945068 178.04292297 C165.22592387 183.47566884 164.79783617 188.01030727 162.98950195 193.14526367 C162.32950195 193.14526367 161.66950195 193.14526367 160.98950195 193.14526367 C161.31950195 194.13526367 161.64950195 195.12526367 161.98950195 196.14526367 C160.85193757 198.86718774 159.65820157 201.41128346 158.30200195 204.02026367 C157.94944336 204.72795898 157.59688477 205.4356543 157.23364258 206.16479492 C155.18879367 210.17972679 153.08498747 213.82168975 149.98950195 217.14526367 C149.32950195 217.14526367 148.66950195 217.14526367 147.98950195 217.14526367 C147.6337207 217.99797852 147.6337207 217.99797852 147.27075195 218.86791992 C142.76994033 226.86783814 134.10315636 231.56736746 125.98950195 235.14526367 C124.91700195 235.72276367 123.84450195 236.30026367 122.73950195 236.89526367 C119.77367183 238.24336827 117.22865901 238.85079485 113.98950195 239.14526367 C113.32950195 238.81526367 112.66950195 238.48526367 111.98950195 238.14526367 C111.98950195 238.80526367 111.98950195 239.46526367 111.98950195 240.14526367 C105.29502946 241.00851893 98.77099589 241.28858317 92.02539062 241.2746582 C90.43834824 241.27728668 90.43834824 241.27728668 88.81924438 241.27996826 C85.34863611 241.28434257 81.87807943 241.28146548 78.4074707 241.27807617 C75.98610932 241.27875023 73.564748 241.27972111 71.14338684 241.28097534 C66.08240104 241.28244611 61.02143295 241.28031679 55.96044922 241.27563477 C49.46935979 241.26992257 42.97831157 241.27322983 36.48722363 241.27920723 C31.49361357 241.2828166 26.50001332 241.28167278 21.50640297 241.27907944 C19.1121654 241.278412 16.71792694 241.2792322 14.32369041 241.28155899 C10.98464968 241.28409329 7.64567633 241.28023453 4.30664062 241.2746582 C3.31593063 241.27668243 2.32522064 241.27870667 1.30448914 241.28079224 C0.39485413 241.27797241 -0.51478088 241.27515259 -1.45198059 241.27224731 C-2.24040753 241.27187029 -3.02883448 241.27149326 -3.84115314 241.27110481 C-6.01506837 241.14499855 -7.92163131 240.74456373 -10.01049805 240.14526367 C-10.01049805 239.48526367 -10.01049805 238.82526367 -10.01049805 238.14526367 C-10.59057617 238.33604492 -11.1706543 238.52682617 -11.76831055 238.72338867 C-19.60429914 240.19775586 -29.99611077 232.17348651 -36.2019043 228.15698242 C-45.24573557 221.67913388 -53.10403018 212.6374141 -57.01049805 202.14526367 C-57.40237305 201.25838867 -57.79424805 200.37151367 -58.19799805 199.45776367 C-58.46612305 198.69463867 -58.73424805 197.93151367 -59.01049805 197.14526367 C-58.68049805 196.48526367 -58.35049805 195.82526367 -58.01049805 195.14526367 C-58.67049805 195.14526367 -59.33049805 195.14526367 -60.01049805 195.14526367 C-66.92146722 185.73635383 -72.16777605 174.43434671 -75.01049805 163.14526367 C-75.17936523 162.53682617 -75.34823242 161.92838867 -75.5222168 161.30151367 C-76.83459771 155.50603957 -77.15939573 149.77929399 -77.15576172 143.85839844 C-77.15912033 143.06068024 -77.16247894 142.26296204 -77.16593933 141.44107056 C-77.17538244 138.82292086 -77.17738892 136.20483555 -77.1784668 133.58666992 C-77.1816834 131.75495885 -77.18504778 129.92324802 -77.18855286 128.09153748 C-77.19452709 124.25942387 -77.19639445 120.42733277 -77.19580078 116.59521484 C-77.19569912 111.69848286 -77.20936296 106.80189575 -77.22657299 101.9051981 C-77.23771991 98.12439823 -77.23971918 94.34363314 -77.23919106 90.56281853 C-77.24036666 88.75801023 -77.24476476 86.9532009 -77.25252342 85.14840889 C-77.2623802 82.61934516 -77.25942325 80.09059276 -77.25341797 77.56152344 C-77.25903748 76.82517166 -77.26465698 76.08881989 -77.27044678 75.33015442 C-77.24028749 70.30235141 -76.37612865 65.98749244 -75.01049805 61.14526367 C-74.69725586 59.89229492 -74.69725586 59.89229492 -74.37768555 58.61401367 C-73.6940918 55.87963867 -73.6940918 55.87963867 -73.01049805 53.14526367 C-72.35049805 53.14526367 -71.69049805 53.14526367 -71.01049805 53.14526367 C-71.50549805 51.66026367 -71.50549805 51.66026367 -72.01049805 50.14526367 C-70.88549805 47.52026367 -70.88549805 47.52026367 -69.01049805 44.14526367 C-68.48069336 43.11852539 -68.48069336 43.11852539 -67.94018555 42.07104492 C-63.83812098 34.28798865 -59.06875299 27.48664579 -52.01049805 22.14526367 C-51.42526367 21.37053711 -50.8400293 20.59581055 -50.23706055 19.79760742 C-47.76770041 16.85603631 -45.28454423 15.05154599 -42.07299805 12.95776367 C-41.05334961 12.28358398 -40.03370117 11.6094043 -38.9831543 10.91479492 C-36.34257094 9.3429365 -33.88376233 8.20236415 -31.01049805 7.14526367 C-30.25510742 6.81526367 -29.4997168 6.48526367 -28.72143555 6.14526367 C-23.27996418 3.81580436 -18.1123586 2.42921123 -12.26049805 1.53979492 C-3.46769061 -0.00199944 -3.46769061 -0.00199944 0 0 Z M-36.01049805 13.14526367 C-36.79553711 13.60803711 -37.58057617 14.07081055 -38.3894043 14.54760742 C-54.82751748 24.8678837 -66.94923035 40.35137509 -71.79998779 59.21551514 C-74.05348204 69.47343787 -74.45231697 79.28968149 -74.40893555 89.76635742 C-74.41096411 91.52263001 -74.413882 93.27890176 -74.41763306 95.03517151 C-74.42202084 98.69182461 -74.41574193 102.3482558 -74.40161133 106.00488281 C-74.38453441 110.64512818 -74.39437398 115.28485213 -74.41232872 119.92507839 C-74.42327432 123.54494511 -74.4196712 127.16469234 -74.41194534 130.78456306 C-74.40997228 132.49344002 -74.41229823 134.20232854 -74.419384 135.91119194 C-74.46457483 149.86760319 -74.04902395 164.38304022 -67.01049805 176.83276367 C-66.66760742 177.48180664 -66.3247168 178.13084961 -65.97143555 178.79956055 C-62.58166418 185.3956696 -62.58166418 185.3956696 -58.01049805 191.14526367 C-57.40388586 192.77535424 -56.84869159 194.42480712 -56.32299805 196.08276367 C-50.17281815 213.40275559 -37.41906268 225.63464013 -21.1706543 233.52416992 C-12.42211784 237.17725679 -4.44469483 238.44329707 4.97265625 238.41992188 C6.58168571 238.42758827 6.58168571 238.42758827 8.22322083 238.43540955 C11.75344495 238.44925727 15.28347271 238.44835191 18.8137207 238.44604492 C21.28221203 238.44993539 23.7507027 238.45427078 26.2191925 238.45903015 C31.38964 238.46648269 36.56001921 238.46620871 41.73046875 238.4609375 C48.32953235 238.45515392 54.92831427 238.47205201 61.52733135 238.49528217 C66.62597771 238.51007641 71.72455719 238.51088331 76.82322121 238.50777245 C79.25468311 238.50828312 81.68614902 238.5134727 84.11758995 238.52358437 C107.82590841 238.61006172 126.19502225 235.79600519 144.25512695 219.04370117 C148.97720503 214.24131564 152.33860885 209.17277327 155.36450195 203.20776367 C155.68620361 202.57620361 156.00790527 201.94464355 156.33935547 201.29394531 C160.8093027 191.97239795 162.43912622 182.82496954 162.39355469 172.54614258 C162.40041794 171.44375748 162.40728119 170.34137238 162.41435242 169.20558167 C162.43251817 165.59419542 162.42879719 161.9832479 162.4230957 158.37182617 C162.42766254 155.84036113 162.43296961 153.30889733 162.4389801 150.7774353 C162.44789131 145.48364631 162.44574786 140.19001435 162.43554688 134.89624023 C162.42407593 128.80958401 162.43813721 122.72336897 162.46494335 116.63677084 C162.48991755 110.74156309 162.4922535 104.84652475 162.48582649 98.95127487 C162.48567393 96.46119834 162.49166372 93.97111305 162.50411797 91.48106766 C162.5993238 69.32664555 159.71068105 51.98354561 143.98950195 35.14526367 C134.8871163 26.4776607 124.86348604 20.49178546 112.4621582 18.07885742 C109.15279071 16.829349 107.46632022 14.64456441 104.98950195 12.14526367 C101.96775059 10.37961067 101.96775059 10.37961067 98.61450195 9.02026367 C97.53426758 8.54331055 96.4540332 8.06635742 95.34106445 7.57495117 C82.8855841 3.09682688 70.28642346 2.68162846 57.2199707 2.71166992 C55.44606836 2.70709164 53.67216777 2.70178129 51.89826965 2.69578552 C48.20293924 2.68691845 44.50782566 2.68920289 40.8125 2.69921875 C36.12974861 2.71068837 31.44775366 2.69049458 26.76510143 2.66130161 C23.10740075 2.64275361 19.44987508 2.6432688 15.79213905 2.64893913 C14.0681585 2.64909015 12.34416434 2.64323266 10.62022972 2.63064766 C-5.93047681 2.52681807 -21.5756647 4.48436367 -36.01049805 13.14526367 Z " fill="#1B5D2E" transform="translate(89.010498046875,9.854736328125)"/>
<path d="M0 0 C5.28 0 10.56 0 16 0 C16 7.59 16 15.18 16 23 C19.96 23 23.92 23 28 23 C28 15.74 28 8.48 28 1 C33.28 1 38.56 1 44 1 C44 20.8 44 40.6 44 61 C38.72 61 33.44 61 28 61 C28 52.42 28 43.84 28 35 C24.04 35 20.08 35 16 35 C16 43.58 16 52.16 16 61 C10.72 61 5.44 61 0 61 C0 40.87 0 20.74 0 0 Z " fill="#FBFCFC" transform="translate(59,112)"/>
<path d="M0 0 C12.54 0 25.08 0 38 0 C38 3.63 38 7.26 38 11 C30.74 11 23.48 11 16 11 C16 15.29 16 19.58 16 24 C22.93 24 29.86 24 37 24 C37 27.63 37 31.26 37 35 C30.07 35 23.14 35 16 35 C16 43.25 16 51.5 16 60 C10.72 60 5.44 60 0 60 C0 40.2 0 20.4 0 0 Z " fill="#F9FDFB" transform="translate(186,113)"/>
<path d="M0 0 C3.7485705 6.4975222 3.14842051 13.86292686 3.14526367 21.12670898 C3.14862228 22.23800171 3.1519809 23.34929443 3.15544128 24.4942627 C3.164927 28.16155113 3.16689309 31.82879381 3.16796875 35.49609375 C3.17118256 38.04907754 3.17454673 40.60206115 3.17805481 43.15504456 C3.18403982 48.50384014 3.1859382 53.85261872 3.18530273 59.20141602 C3.18470189 65.37259492 3.19525886 71.54368642 3.2110464 77.71484321 C3.22572543 83.66608446 3.22929008 89.61729914 3.22869301 95.56855965 C3.2298725 98.09429341 3.23429253 100.62002784 3.24202538 103.14575005 C3.25183029 106.67853925 3.24894525 110.21110361 3.24291992 113.74389648 C3.24853943 114.78463821 3.25415894 115.82537994 3.25994873 116.8976593 C3.23642191 122.33040516 2.80833422 126.8650436 1 132 C0.34 132 -0.32 132 -1 132 C-0.67 132.99 -0.34 133.98 0 135 C-1.13756438 137.72192407 -2.33130038 140.26601979 -3.6875 142.875 C-4.04005859 143.58269531 -4.39261719 144.29039062 -4.75585938 145.01953125 C-6.80070829 149.03446311 -8.90451448 152.67642608 -12 156 C-12.66 156 -13.32 156 -14 156 C-14.35578125 156.85271484 -14.35578125 156.85271484 -14.71875 157.72265625 C-19.21956162 165.72257446 -27.88634559 170.42210379 -36 174 C-37.0725 174.5775 -38.145 175.155 -39.25 175.75 C-42.21583012 177.0981046 -44.76084295 177.70553118 -48 178 C-48.66 177.67 -49.32 177.34 -50 177 C-50 177.66 -50 178.32 -50 179 C-56.6944725 179.86325526 -63.21850606 180.14331949 -69.96411133 180.12939453 C-71.55115372 180.13202301 -71.55115372 180.13202301 -73.17025757 180.13470459 C-76.64086585 180.1390789 -80.11142252 180.1362018 -83.58203125 180.1328125 C-86.00339264 180.13348656 -88.42475396 180.13445743 -90.84611511 180.13571167 C-95.90710091 180.13718243 -100.968069 180.13505312 -106.02905273 180.13037109 C-112.52014217 180.1246589 -119.01119039 180.12796616 -125.50227833 180.13394356 C-130.49588839 180.13755292 -135.48948863 180.13640911 -140.48309898 180.13381577 C-142.87733655 180.13314833 -145.27157501 180.13396853 -147.66581154 180.13629532 C-151.00485228 180.13882962 -154.34382562 180.13497086 -157.68286133 180.12939453 C-158.67357132 180.13141876 -159.66428131 180.13344299 -160.68501282 180.13552856 C-161.59464783 180.13270874 -162.50428284 180.12988892 -163.44148254 180.12698364 C-164.22990949 180.12660662 -165.01833643 180.12622959 -165.8306551 180.12584114 C-168.00457032 179.99973488 -169.91113326 179.59930006 -172 179 C-172 178.34 -172 177.68 -172 177 C-172.58007812 177.19078125 -173.16015625 177.3815625 -173.7578125 177.578125 C-181.59380109 179.05249219 -191.98561273 171.02822284 -198.19140625 167.01171875 C-207.04574906 160.6695956 -215.46129159 151.46226835 -219 141 C-219 140.01 -219 139.02 -219 138 C-215.04467847 139.31844051 -214.79192454 140.80275178 -212.875 144.4375 C-203.74827291 160.451965 -190.0328367 169.83282764 -172.53166199 175.029953 C-167.3650176 176.30381978 -162.31424249 176.28780709 -157.0168457 176.2746582 C-155.40781624 176.2823246 -155.40781624 176.2823246 -153.76628113 176.29014587 C-150.236057 176.3039936 -146.70602924 176.30308824 -143.17578125 176.30078125 C-140.70728992 176.30467171 -138.23879926 176.30900711 -135.77030945 176.31376648 C-130.59986195 176.32121902 -125.42948275 176.32094504 -120.2590332 176.31567383 C-113.6599696 176.30989025 -107.06118768 176.32678834 -100.4621706 176.3500185 C-95.36352425 176.36481274 -90.26494477 176.36561963 -85.16628075 176.36250877 C-82.73481884 176.36301944 -80.30335294 176.36820903 -77.871912 176.37832069 C-54.28389418 176.46435925 -35.99626939 173.71167415 -17.95703125 157.12109375 C-13.53917915 152.61778996 -10.52797864 147.70406555 -7.6875 142.125 C-7.36193115 141.48957275 -7.0363623 140.85414551 -6.70092773 140.19946289 C-2.06647257 130.618537 -0.55404519 121.3590335 -0.67529297 110.78320312 C-0.67646118 109.61598724 -0.67762939 108.44877136 -0.67883301 107.2461853 C-0.68596663 103.42435325 -0.71412533 99.60298049 -0.7421875 95.78125 C-0.75033087 93.11372056 -0.75718723 90.44622024 -0.76223755 87.77868652 C-0.77665632 81.49621044 -0.80553452 75.21389696 -0.84048474 68.93150473 C-0.90270356 57.6606922 -0.94000801 46.38978052 -0.97207749 35.11884642 C-0.98580181 30.53038473 -1.00976079 25.94204064 -1.03634644 21.3536377 C-1.04636516 18.96297268 -1.05623079 16.57230701 -1.06591797 14.18164062 C-1.07422638 13.08761932 -1.08253479 11.99359802 -1.09109497 10.86642456 C-1.09405579 9.86849884 -1.0970166 8.87057312 -1.10006714 7.84240723 C-1.10488539 6.97453835 -1.10970364 6.10666946 -1.11466789 5.21250153 C-1 3 -1 3 0 0 Z " fill="#185F3F" transform="translate(251,71)"/>
<path d="M0 0 C0 13.86 0 27.72 0 42 C-7.56309144 40.48738171 -11.47043161 37.09185545 -15.80859375 30.94140625 C-17.28318374 28.53854977 -17.85884561 26.82308779 -18 24 C-18.103125 22.741875 -18.20625 21.48375 -18.3125 20.1875 C-18.19307021 14.41144104 -16.03188906 10.11774352 -12.05859375 5.9765625 C-5.43558673 0 -5.43558673 0 0 0 Z " fill="#09683C" transform="translate(141,122)"/>
<path d="M0 0 C7.48221911 2.13777689 10.73259259 3.66264524 14.8125 10.0625 C17.8904099 15.9845545 18.21013487 21.87130457 16.3359375 28.265625 C14.13088973 33.28929905 10.65851151 37.10914503 6 40 C4.02 40.66 2.04 41.32 0 42 C0 28.14 0 14.28 0 0 Z " fill="#059945" transform="translate(149,122)"/>
<path d="M0 0 C0.33 0 0.66 0 1 0 C0.93016907 0.65361511 0.86033813 1.30723022 0.78839111 1.98065186 C-0.11860032 11.43508878 -0.18189946 20.84025147 -0.203125 30.328125 C-0.20736607 31.62211842 -0.20736607 31.62211842 -0.21169281 32.94225311 C-0.2265857 37.50593866 -0.23587812 42.06959339 -0.24023438 46.63330078 C-0.24571132 51.29712146 -0.26975182 55.96064913 -0.29820633 60.6243782 C-0.31700371 64.25708802 -0.32204726 67.88972952 -0.32357025 71.52248383 C-0.32655776 73.2397497 -0.33445041 74.95701555 -0.34775543 76.67423248 C-0.44875027 90.70740279 -0.03856444 105.2075957 7 117.75 C7.34289063 118.40742188 7.68578125 119.06484375 8.0390625 119.7421875 C9.7887943 123.04130012 11.68183168 126.07594678 14 129 C15.90318884 131.85478326 16.4619099 133.41941308 17.125 136.6875 C17.29257812 137.49574219 17.46015625 138.30398437 17.6328125 139.13671875 C17.75398438 139.75160156 17.87515625 140.36648437 18 141 C17.01 141 16.02 141 15 141 C14.67 140.01 14.34 139.02 14 138 C14.33 137.34 14.66 136.68 15 136 C14.34 136 13.68 136 13 136 C6.08903082 126.59109016 0.842722 115.28908304 -2 104 C-2.16886719 103.3915625 -2.33773438 102.783125 -2.51171875 102.15625 C-3.82233187 96.36858246 -4.15216151 90.64218375 -4.16113281 84.72900391 C-4.16609772 83.932892 -4.17106262 83.13678009 -4.17617798 82.31654358 C-4.1906903 79.70320752 -4.19758233 77.0899321 -4.203125 74.4765625 C-4.20595238 73.57851269 -4.20877975 72.68046288 -4.21169281 71.75519943 C-4.22663918 67.00509094 -4.23589807 62.25501248 -4.24023438 57.50488281 C-4.24572015 52.61715526 -4.26976353 47.72970609 -4.29820633 42.84206581 C-4.31689165 39.06551321 -4.32204139 35.28902701 -4.32357025 31.5124321 C-4.3265827 29.71123097 -4.33456327 27.91003061 -4.34775543 26.10887527 C-4.46675277 8.61741528 -4.46675277 8.61741528 -1 1 C-0.67 0.67 -0.34 0.34 0 0 Z " fill="#186428" transform="translate(16,69)"/>
<path d="M0 0 C3.75603908 6.51046774 3.15337617 13.91099795 3.16113281 21.19018555 C3.16609772 22.30790344 3.17106262 23.42562134 3.17617798 24.57720947 C3.19074985 28.26371887 3.19759092 31.95018533 3.203125 35.63671875 C3.20887756 38.19928488 3.21463529 40.761851 3.22039795 43.32441711 C3.22955212 48.0050647 3.23586024 52.68569942 3.2388947 57.36635369 C3.24338555 64.25440123 3.26099193 71.14225132 3.2898953 78.03023881 C3.31408768 84.00284818 3.3218373 89.97540811 3.32357025 95.94806862 C3.3266041 98.48828015 3.33465707 101.0284907 3.34775543 103.56867027 C3.36473219 107.11193415 3.36295682 110.65471048 3.35644531 114.19799805 C3.3656601 115.25312088 3.37487488 116.30824371 3.3843689 117.39533997 C3.37879974 118.35842072 3.37323059 119.32150146 3.36749268 120.31376648 C3.36895924 121.15125773 3.3704258 121.98874899 3.3719368 122.85161877 C2.91717741 125.4783998 2.07043909 126.37661767 0 128 C-0.33 128 -0.66 128 -1 128 C-1.02334643 111.75383842 -1.04098777 95.50768228 -1.05181217 79.26150799 C-1.05697141 71.71835965 -1.06400705 64.17522173 -1.07543945 56.63208008 C-1.08539762 50.05851494 -1.09185614 43.48495735 -1.09408849 36.91138488 C-1.09539367 33.42980727 -1.09846737 29.94825123 -1.10573006 26.46668053 C-1.11376639 22.58284471 -1.1139904 18.69903013 -1.11352539 14.81518555 C-1.11712067 13.65712906 -1.12071594 12.49907257 -1.12442017 11.30592346 C-1.1230455 10.25003021 -1.12167084 9.19413696 -1.12025452 8.10624695 C-1.12117631 7.18721934 -1.1220981 6.26819174 -1.12304783 5.32131481 C-1 3 -1 3 0 0 Z " fill="#2D6C4F" transform="translate(251,71)"/>
<path d="M0 0 C3.40667322 0.44824648 5.07914607 1.05276405 8 3 C8 3.66 8 4.32 8 5 C8.94875 5.0825 9.8975 5.165 10.875 5.25 C19.83218515 6.59897367 26.6502378 10.85721331 33.75 16.29296875 C35.87588463 18.01474477 35.87588463 18.01474477 38 19 C38 19.66 38 20.32 38 21 C38.58007812 21.24878906 39.16015625 21.49757813 39.7578125 21.75390625 C48.42415903 26.57022079 54.53216097 37.7180151 57.375 46.9375 C58 50 58 50 58 54 C57.34 54 56.68 54 56 54 C55.59910156 52.98421875 55.19820312 51.9684375 54.78515625 50.921875 C47.74855403 33.64849128 37.64204674 20.46524345 20.34765625 12.28515625 C14.0707574 9.87547163 7.5615499 8.41556279 1 7 C1.99 6.34 2.98 5.68 4 5 C2.35 3.68 0.7 2.36 -1 1 C-0.67 0.67 -0.34 0.34 0 0 Z " fill="#206235" transform="translate(193,20)"/>
<path d="M0 0 C0.66 0.66 1.32 1.32 2 2 C1.67 2.99 1.34 3.98 1 5 C0.34 5 -0.32 5 -1 5 C-0.505 6.485 -0.505 6.485 0 8 C-1.13756438 10.72192407 -2.33130038 13.26601979 -3.6875 15.875 C-4.04005859 16.58269531 -4.39261719 17.29039062 -4.75585938 18.01953125 C-6.80070829 22.03446311 -8.90451448 25.67642608 -12 29 C-12.66 29 -13.32 29 -14 29 C-14.2371875 29.56847656 -14.474375 30.13695312 -14.71875 30.72265625 C-19.21956162 38.72257446 -27.88634559 43.42210379 -36 47 C-37.60875 47.86625 -37.60875 47.86625 -39.25 48.75 C-42.21583012 50.0981046 -44.76084295 50.70553118 -48 51 C-48.66 50.67 -49.32 50.34 -50 50 C-50 50.66 -50 51.32 -50 52 C-53.465 52.495 -53.465 52.495 -57 53 C-56.67 51.68 -56.34 50.36 -56 49 C-54.83597656 48.79697266 -54.83597656 48.79697266 -53.6484375 48.58984375 C-37.16143012 45.30424681 -21.86684619 36.87949288 -12 23 C-8.39946177 16.83868558 -5.08500365 10.3742844 -2.8984375 3.57421875 C-2 1 -2 1 0 0 Z " fill="#1F6335" transform="translate(251,198)"/>
<path d="M0 0 C3.95532153 1.31844051 4.20807546 2.80275178 6.125 6.4375 C14.89051202 21.81814894 28.35271145 31.8595083 45.390625 36.67578125 C47.25134848 37.15397417 49.12456189 37.58323598 51 38 C50.505 38.99 50.505 38.99 50 40 C37.39825507 40.78760906 24.82592686 32.83070456 15.53515625 24.89453125 C9.1104164 18.68944063 2.90077683 11.57620976 0 3 C0 2.01 0 1.02 0 0 Z " fill="#1E6032" transform="translate(32,209)"/>
<path d="M0 0 C0.99 0 1.98 0 3 0 C3 13.86 3 27.72 3 42 C-1.91329138 41.01734172 -4.09368383 39.95143888 -8 37 C-8.66 36.01 -9.32 35.02 -10 34 C-8.75482035 32.86966702 -7.50363348 31.74594964 -6.25 30.625 C-5.55390625 29.99851563 -4.8578125 29.37203125 -4.140625 28.7265625 C-2 27 -2 27 2 25 C2 17.08 2 9.16 2 1 C1.34 0.67 0.68 0.34 0 0 Z " fill="#11964C" transform="translate(138,122)"/>
<path d="M0 0 C7 2 7 2 10 4 C9.44520943 7.84885956 7.75581685 9.59260518 5 12.25 C4.278125 12.95640625 3.55625 13.6628125 2.8125 14.390625 C1 16 1 16 0 16 C0 10.72 0 5.44 0 0 Z " fill="#09683C" transform="translate(149,122)"/>
<path d="M0 0 C0.66 0.66 1.32 1.32 2 2 C1.67 2.99 1.34 3.98 1 5 C0.34 5 -0.32 5 -1 5 C-0.67 5.99 -0.34 6.98 0 8 C-0.63671875 10.0078125 -0.63671875 10.0078125 -1.6875 12.125 C-2.18830078 13.18074219 -2.18830078 13.18074219 -2.69921875 14.2578125 C-4.32253483 16.43198359 -5.41292919 16.47264443 -8 17 C-7.05023017 14.35079924 -6.09072092 11.70588027 -5.125 9.0625 C-4.85558594 8.30775391 -4.58617187 7.55300781 -4.30859375 6.77539062 C-2.2265625 1.11328125 -2.2265625 1.11328125 0 0 Z " fill="#296938" transform="translate(251,198)"/>
<path d="M0 0 C3.90829085 0.5647301 5.89920223 2.42131971 8.75 5.0625 C9.54921875 5.79597656 10.3484375 6.52945313 11.171875 7.28515625 C11.77515625 7.85105469 12.3784375 8.41695312 13 9 C12.67 10.32 12.34 11.64 12 13 C10.36828877 11.59106853 8.74486055 10.17254042 7.125 8.75 C6.22007813 7.96109375 5.31515625 7.1721875 4.3828125 6.359375 C2.25560007 4.25308597 1.09487694 2.74348474 0 0 Z " fill="#1A5B2F" transform="translate(41,225)"/>
<path d="M0 0 C-0.99 0.33 -1.98 0.66 -3 1 C-3 1.66 -3 2.32 -3 3 C-5.31 3.33 -7.62 3.66 -10 4 C-9.67 2.68 -9.34 1.36 -9 0 C-5.62182575 -0.84454356 -3.32534757 -1.10844919 0 0 Z " fill="#2B6A3B" transform="translate(204,247)"/>
<path d="M0 0 C4.67692308 1.47692308 4.67692308 1.47692308 6.3125 4.125 C6.539375 4.74375 6.76625 5.3625 7 6 C6.01 6.66 5.02 7.32 4 8 C0 2.25 0 2.25 0 0 Z " fill="#27693F" transform="translate(239,52)"/>
<path d="M0 0 C-0.33 0.99 -0.66 1.98 -1 3 C-3.97 2.67 -6.94 2.34 -10 2 C-6.3558226 -0.4294516 -4.28758728 -0.16179575 0 0 Z " fill="#145D28" transform="translate(89,248)"/>
<path d="M0 0 C2.12038635 2.61514317 4.13091744 5.19637616 6 8 C5.01 8.495 5.01 8.495 4 9 C3.01 8.34 2.02 7.68 1 7 C0.3125 3.375 0.3125 3.375 0 0 Z " fill="#2E6D40" transform="translate(38,217)"/>
<path d="M0 0 C2.97 0.33 5.94 0.66 9 1 C8.67 1.66 8.34 2.32 8 3 C5.69 3 3.38 3 1 3 C0.67 2.01 0.34 1.02 0 0 Z " fill="#2A6A3D" transform="translate(74,246)"/>
<path d="M0 0 C0.66 0.33 1.32 0.66 2 1 C1.67 1.99 1.34 2.98 1 4 C-0.98 4.33 -2.96 4.66 -5 5 C-4.1875 3.0625 -4.1875 3.0625 -3 1 C-2.01 0.67 -1.02 0.34 0 0 Z " fill="#1C612C" transform="translate(208,244)"/>
<path d="M0 0 C0.66 0.33 1.32 0.66 2 1 C2.40729228 3.32156597 2.74438677 5.6568787 3 8 C0.47411298 5.63707344 -0.88820837 4.33537489 -2 1 C-1.34 0.67 -0.68 0.34 0 0 Z " fill="#125132" transform="translate(36,215)"/>
<path d="M0 0 C-2.39509338 2.89932357 -4.31245243 3.50168276 -8 4 C-7.1875 2.0625 -7.1875 2.0625 -6 0 C-3 -1 -3 -1 0 0 Z " fill="#146025" transform="translate(79,12)"/>
<path d="" fill="#00584E" transform="translate(0,0)"/>
</svg>
